<svg width="143" height="84" viewBox="0 0 143 84" fill="none" xmlns="http://www.w3.org/2000/svg">
<path d="M3.3 67V25.66H17.28C24.08 25.66 29.2 26.78 32.64 29.02C36.12 31.22 37.86 34.48 37.86 38.8C37.86 41.8 37.1 44.36 35.58 46.48C34.1 48.56 32 50.16 29.28 51.28C26.56 52.36 23.36 52.9 19.68 52.9H16.56V67H3.3ZM19.14 44.56C21.26 44.56 22.9 44.12 24.06 43.24C25.22 42.36 25.8 41.04 25.8 39.28C25.8 37.64 25.24 36.42 24.12 35.62C23 34.78 21.38 34.36 19.26 34.36H16.56V44.56H19.14ZM59.6873 59.08C60.8473 59.08 62.0673 58.96 63.3473 58.72C64.6673 58.48 66.0073 58.04 67.3673 57.4L68.8073 65.14C67.3273 65.9 65.7073 66.48 63.9473 66.88C62.2273 67.28 60.2473 67.48 58.0073 67.48C53.9673 67.48 50.5673 66.82 47.8073 65.5C45.0873 64.18 43.0273 62.36 41.6273 60.04C40.2273 57.72 39.5273 55.04 39.5273 52C39.5273 48.88 40.2673 46.16 41.7473 43.84C43.2673 41.52 45.2873 39.72 47.8073 38.44C50.3273 37.16 53.1073 36.52 56.1473 36.52C60.6673 36.52 64.1273 37.94 66.5273 40.78C68.9273 43.58 70.1273 47.58 70.1273 52.78L52.2473 55.06C53.5673 57.74 56.0473 59.08 59.6873 59.08ZM51.2873 49.54L60.7073 47.56C60.5473 46.28 60.1073 45.34 59.3873 44.74C58.6673 44.1 57.7673 43.78 56.6873 43.78C55.0873 43.78 53.8073 44.34 52.8473 45.46C51.9273 46.54 51.4073 47.9 51.2873 49.54ZM87.1486 67.48C84.3086 67.48 81.9886 67 80.1886 66.04C78.4286 65.08 77.1486 63.78 76.3486 62.14C75.5486 60.5 75.1486 58.66 75.1486 56.62V44.38H71.3086V36.94H76.0486L81.6286 27.46H87.8086V36.94H94.7686V44.38H87.8086V54.88C87.8086 55.8 88.1086 56.52 88.7086 57.04C89.3086 57.52 90.0886 57.76 91.0486 57.76C92.0086 57.76 92.9686 57.52 93.9286 57.04L94.8286 65.38C93.8686 66.06 92.6486 66.58 91.1686 66.94C89.6886 67.3 88.3486 67.48 87.1486 67.48Z" fill="#ED7959"/>
<path d="M99.4523 67V25.72H112.952V41.26H125.732V25.72H139.292V67H125.732V50.74H112.952V67H99.4523Z" fill="#ED7959"/>
<path d="M5 17.5L74 6L138 17.5" stroke="#ED7959" stroke-width="6" stroke-linecap="round"/>
</svg>
